<svg width="326" height="48" viewBox="0 0 326 48" fill="none" xmlns="http://www.w3.org/2000/svg">
<path d="M91.7872 19.8562H85.7434C85.633 19.0743 85.4076 18.3798 85.0673 17.7727C84.7269 17.1563 84.2899 16.632 83.7564 16.1996C83.2229 15.7673 82.6065 15.4361 81.9074 15.2061C81.2175 14.9761 80.4677 14.8612 79.6582 14.8612C78.1956 14.8612 76.9215 15.2245 75.836 15.9512C74.7505 16.6688 73.9088 17.7175 73.3109 19.0973C72.7129 20.468 72.414 22.133 72.414 24.0924C72.414 26.107 72.7129 27.7996 73.3109 29.1703C73.918 30.541 74.7643 31.5758 75.8498 32.275C76.9353 32.9741 78.191 33.3237 79.6168 33.3237C80.4171 33.3237 81.1577 33.2179 81.8384 33.0063C82.5283 32.7947 83.1401 32.4866 83.6736 32.0818C84.2072 31.6678 84.6487 31.1665 84.9983 30.5777C85.357 29.989 85.6054 29.3175 85.7434 28.5632L91.7872 28.5908C91.6308 29.8878 91.2398 31.1389 90.6143 32.344C89.998 33.5398 89.1654 34.6115 88.1168 35.559C87.0773 36.4973 85.8354 37.2425 84.3911 37.7944C82.9561 38.3372 81.3324 38.6085 79.5202 38.6085C76.9997 38.6085 74.7459 38.0382 72.7589 36.8975C70.7811 35.7568 69.2173 34.1056 68.0674 31.9438C66.9267 29.782 66.3564 27.1649 66.3564 24.0924C66.3564 21.0107 66.9359 18.389 68.095 16.2272C69.2541 14.0654 70.8271 12.4188 72.8141 11.2873C74.8011 10.1466 77.0365 9.57629 79.5202 9.57629C81.1577 9.57629 82.6755 9.80627 84.0738 10.2662C85.4812 10.7262 86.7277 11.3977 87.8132 12.2808C88.8987 13.1547 89.7818 14.2264 90.4625 15.4959C91.1524 16.7654 91.594 18.2188 91.7872 19.8562ZM99.8966 25.969V38.2222H94.0184V9.96265H99.731V20.7669H99.9794C100.458 19.5159 101.23 18.5362 102.298 17.8278C103.365 17.1103 104.703 16.7516 106.313 16.7516C107.785 16.7516 109.068 17.0735 110.163 17.7175C111.267 18.3522 112.122 19.2675 112.729 20.4634C113.346 21.6501 113.649 23.0713 113.64 24.7271V38.2222H107.762V25.7758C107.771 24.4696 107.44 23.4531 106.768 22.7263C106.106 21.9996 105.177 21.6363 103.981 21.6363C103.181 21.6363 102.472 21.8064 101.856 22.1468C101.249 22.4872 100.771 22.9839 100.421 23.6371C100.081 24.281 99.9058 25.0583 99.8966 25.969ZM116.323 38.2222V17.0275H122.022V20.7256H122.243C122.629 19.4101 123.278 18.4166 124.188 17.7451C125.099 17.0643 126.148 16.724 127.334 16.724C127.629 16.724 127.946 16.7424 128.287 16.7792C128.627 16.816 128.926 16.8665 129.183 16.9309V22.1468C128.907 22.064 128.526 21.9904 128.038 21.926C127.551 21.8616 127.104 21.8294 126.7 21.8294C125.835 21.8294 125.062 22.018 124.382 22.3952C123.71 22.7631 123.176 23.2783 122.781 23.9406C122.395 24.603 122.201 25.3665 122.201 26.2312V38.2222H116.323ZM138.869 38.6361C136.726 38.6361 134.872 38.1808 133.309 37.2701C131.754 36.3502 130.553 35.0715 129.707 33.4341C128.861 31.7874 128.438 29.8786 128.438 27.7076C128.438 25.5183 128.861 23.6049 129.707 21.9674C130.553 20.3208 131.754 19.0421 133.309 18.1314C134.872 17.2115 136.726 16.7516 138.869 16.7516C141.013 16.7516 142.862 17.2115 144.416 18.1314C145.98 19.0421 147.185 20.3208 148.032 21.9674C148.878 23.6049 149.301 25.5183 149.301 27.7076C149.301 29.8786 148.878 31.7874 148.032 33.4341C147.185 35.0715 145.98 36.3502 144.416 37.2701C142.862 38.1808 141.013 38.6361 138.869 38.6361ZM138.897 34.0826C139.872 34.0826 140.686 33.8066 141.339 33.2547C141.992 32.6935 142.485 31.93 142.816 30.9641C143.156 29.9982 143.326 28.8989 143.326 27.6662C143.326 26.4336 143.156 25.3343 142.816 24.3684C142.485 23.4025 141.992 22.639 141.339 22.0778C140.686 21.5167 139.872 21.2361 138.897 21.2361C137.913 21.2361 137.085 21.5167 136.413 22.0778C135.751 22.639 135.25 23.4025 134.909 24.3684C134.578 25.3343 134.412 26.4336 134.412 27.6662C134.412 28.8989 134.578 29.9982 134.909 30.9641C135.25 31.93 135.751 32.6935 136.413 33.2547C137.085 33.8066 137.913 34.0826 138.897 34.0826ZM151.18 38.2222V17.0275H156.783V20.7669H157.031C157.473 19.5251 158.209 18.5454 159.239 17.8278C160.269 17.1103 161.502 16.7516 162.937 16.7516C164.39 16.7516 165.628 17.1149 166.649 17.8416C167.67 18.5592 168.351 19.5343 168.691 20.7669H168.912C169.344 19.5527 170.126 18.5822 171.257 17.8554C172.398 17.1195 173.746 16.7516 175.3 16.7516C177.278 16.7516 178.883 17.3817 180.116 18.642C181.358 19.893 181.979 21.6685 181.979 23.9682V38.2222H176.115V25.1273C176.115 23.9498 175.802 23.0667 175.176 22.478C174.551 21.8892 173.769 21.5949 172.83 21.5949C171.763 21.5949 170.931 21.9352 170.333 22.616C169.735 23.2875 169.436 24.1752 169.436 25.2791V38.2222H163.737V25.0031C163.737 23.9636 163.438 23.1357 162.84 22.5194C162.252 21.903 161.474 21.5949 160.508 21.5949C159.855 21.5949 159.266 21.7604 158.742 22.0916C158.227 22.4136 157.818 22.8689 157.514 23.4577C157.21 24.0372 157.059 24.7179 157.059 25.4999V38.2222H151.18ZM190.723 38.6223C189.371 38.6223 188.166 38.3878 187.108 37.9186C186.05 37.4402 185.213 36.7365 184.597 35.8074C183.989 34.8691 183.686 33.7008 183.686 32.3026C183.686 31.1251 183.902 30.1362 184.334 29.3359C184.767 28.5356 185.355 27.8916 186.101 27.4041C186.846 26.9165 187.692 26.5486 188.639 26.3002C189.596 26.0518 190.599 25.877 191.648 25.7758C192.88 25.6471 193.874 25.5275 194.628 25.4171C195.382 25.2975 195.93 25.1227 196.27 24.8927C196.61 24.6628 196.781 24.3224 196.781 23.8716V23.7888C196.781 22.9149 196.505 22.2388 195.953 21.7604C195.41 21.2821 194.637 21.0429 193.635 21.0429C192.577 21.0429 191.735 21.2775 191.109 21.7466C190.484 22.2066 190.07 22.7861 189.868 23.4853L184.431 23.0437C184.707 21.7558 185.25 20.6428 186.059 19.7045C186.869 18.757 187.913 18.0302 189.191 17.5243C190.479 17.0091 191.97 16.7516 193.662 16.7516C194.84 16.7516 195.967 16.8895 197.043 17.1655C198.128 17.4415 199.09 17.8692 199.927 18.4488C200.773 19.0283 201.44 19.7735 201.928 20.6842C202.415 21.5857 202.659 22.6666 202.659 23.9268V38.2222H197.084V35.2831H196.919C196.578 35.9454 196.123 36.5295 195.553 37.0355C194.982 37.5322 194.297 37.9232 193.497 38.2084C192.696 38.4843 191.772 38.6223 190.723 38.6223ZM192.407 34.5655C193.271 34.5655 194.035 34.3954 194.697 34.055C195.359 33.7054 195.879 33.2363 196.256 32.6475C196.633 32.0588 196.822 31.3919 196.822 30.6467V28.3976C196.638 28.5172 196.385 28.6275 196.063 28.7287C195.75 28.8207 195.396 28.9081 195.001 28.9909C194.605 29.0645 194.21 29.1335 193.814 29.1979C193.418 29.2531 193.06 29.3037 192.738 29.3497C192.048 29.4509 191.445 29.6118 190.93 29.8326C190.415 30.0534 190.015 30.3524 189.73 30.7295C189.444 31.0975 189.302 31.5574 189.302 32.1094C189.302 32.9097 189.592 33.5214 190.171 33.9446C190.76 34.3586 191.505 34.5655 192.407 34.5655ZM210.189 17.0275L214.08 24.4374L218.068 17.0275H224.098L217.957 27.6248L224.263 38.2222H218.261L214.08 30.8951L209.968 38.2222H203.897L210.189 27.6248L204.117 17.0275H210.189ZM248.137 18.09C248.027 16.9769 247.553 16.1122 246.716 15.4959C245.879 14.8795 244.743 14.5714 243.307 14.5714C242.332 14.5714 241.509 14.7094 240.838 14.9853C240.166 15.2521 239.651 15.6247 239.292 16.103C238.942 16.5814 238.768 17.1241 238.768 17.7313C238.749 18.2372 238.855 18.6788 239.085 19.0559C239.324 19.4331 239.651 19.7597 240.065 20.0356C240.479 20.3024 240.957 20.537 241.5 20.7394C242.043 20.9325 242.622 21.0981 243.238 21.2361L245.777 21.8432C247.01 22.1192 248.142 22.4872 249.172 22.9471C250.202 23.4071 251.094 23.9728 251.849 24.6444C252.603 25.3159 253.187 26.107 253.601 27.0177C254.024 27.9284 254.241 28.9725 254.25 30.15C254.241 31.8794 253.799 33.3789 252.925 34.6483C252.06 35.9086 250.809 36.8883 249.172 37.5874C247.544 38.2774 245.58 38.6223 243.28 38.6223C240.998 38.6223 239.011 38.2728 237.319 37.5736C235.635 36.8745 234.32 35.8396 233.372 34.469C232.434 33.0891 231.942 31.3827 231.896 29.3497H237.678C237.742 30.2972 238.013 31.0883 238.492 31.723C238.979 32.3486 239.628 32.8223 240.437 33.1443C241.256 33.4571 242.181 33.6134 243.211 33.6134C244.223 33.6134 245.101 33.4663 245.846 33.1719C246.601 32.8775 247.185 32.4682 247.599 31.9438C248.013 31.4195 248.22 30.8169 248.22 30.1362C248.22 29.5015 248.031 28.9679 247.654 28.5356C247.286 28.1032 246.743 27.7352 246.026 27.4317C245.317 27.1281 244.448 26.8521 243.418 26.6038L240.341 25.831C237.958 25.2515 236.077 24.3454 234.697 23.1127C233.317 21.88 232.632 20.2196 232.641 18.1314C232.632 16.4204 233.087 14.9255 234.007 13.6469C234.936 12.3682 236.21 11.3701 237.829 10.6526C239.448 9.93505 241.288 9.57629 243.349 9.57629C245.446 9.57629 247.277 9.93505 248.841 10.6526C250.414 11.3701 251.637 12.3682 252.511 13.6469C253.385 14.9255 253.836 16.4066 253.863 18.09H248.137ZM267.489 17.0275V21.4431H254.725V17.0275H267.489ZM257.623 11.9496H263.501V31.7092C263.501 32.252 263.584 32.6751 263.749 32.9787C263.915 33.2731 264.145 33.4801 264.439 33.5996C264.743 33.7192 265.092 33.779 265.488 33.779C265.764 33.779 266.04 33.756 266.316 33.71C266.592 33.6548 266.803 33.6134 266.951 33.5858L267.875 37.96C267.581 38.052 267.167 38.1578 266.633 38.2774C266.1 38.4061 265.451 38.4843 264.688 38.5119C263.271 38.5671 262.029 38.3786 260.962 37.9462C259.904 37.5138 259.081 36.8423 258.492 35.9316C257.903 35.0209 257.614 33.871 257.623 32.482V11.9496ZM278.724 38.6361C276.58 38.6361 274.727 38.1808 273.163 37.2701C271.608 36.3502 270.408 35.0715 269.561 33.4341C268.715 31.7874 268.292 29.8786 268.292 27.7076C268.292 25.5183 268.715 23.6049 269.561 21.9674C270.408 20.3208 271.608 19.0421 273.163 18.1314C274.727 17.2115 276.58 16.7516 278.724 16.7516C280.867 16.7516 282.716 17.2115 284.271 18.1314C285.834 19.0421 287.04 20.3208 287.886 21.9674C288.732 23.6049 289.155 25.5183 289.155 27.7076C289.155 29.8786 288.732 31.7874 287.886 33.4341C287.04 35.0715 285.834 36.3502 284.271 37.2701C282.716 38.1808 280.867 38.6361 278.724 38.6361ZM278.751 34.0826C279.726 34.0826 280.54 33.8066 281.194 33.2547C281.847 32.6935 282.339 31.93 282.67 30.9641C283.01 29.9982 283.181 28.8989 283.181 27.6662C283.181 26.4336 283.01 25.3343 282.67 24.3684C282.339 23.4025 281.847 22.639 281.194 22.0778C280.54 21.5167 279.726 21.2361 278.751 21.2361C277.767 21.2361 276.939 21.5167 276.267 22.0778C275.605 22.639 275.104 23.4025 274.763 24.3684C274.432 25.3343 274.267 26.4336 274.267 27.6662C274.267 28.8989 274.432 29.9982 274.763 30.9641C275.104 31.93 275.605 32.6935 276.267 33.2547C276.939 33.8066 277.767 34.0826 278.751 34.0826ZM291.035 38.2222V17.0275H296.734V20.7256H296.954C297.341 19.4101 297.989 18.4166 298.9 17.7451C299.811 17.0643 300.859 16.724 302.046 16.724C302.34 16.724 302.658 16.7424 302.998 16.7792C303.338 16.816 303.637 16.8665 303.895 16.9309V22.1468C303.619 22.064 303.237 21.9904 302.75 21.926C302.262 21.8616 301.816 21.8294 301.411 21.8294C300.547 21.8294 299.774 22.018 299.093 22.3952C298.422 22.7631 297.888 23.2783 297.492 23.9406C297.106 24.603 296.913 25.3665 296.913 26.2312V38.2222H291.035ZM313.664 38.6361C311.484 38.6361 309.607 38.1946 308.034 37.3115C306.47 36.4192 305.265 35.1589 304.419 33.5306C303.572 31.8932 303.149 29.9568 303.149 27.7214C303.149 25.5413 303.572 23.6279 304.419 21.9812C305.265 20.3346 306.456 19.0513 307.992 18.1314C309.538 17.2115 311.35 16.7516 313.429 16.7516C314.827 16.7516 316.129 16.9769 317.334 17.4277C318.548 17.8692 319.606 18.5362 320.508 19.4285C321.419 20.3208 322.127 21.4431 322.633 22.7953C323.139 24.1384 323.392 25.7114 323.392 27.5145V29.1289H305.495V25.4861H317.858C317.858 24.6398 317.675 23.89 317.307 23.2369C316.939 22.5838 316.428 22.0732 315.775 21.7053C315.131 21.3281 314.381 21.1395 313.526 21.1395C312.633 21.1395 311.842 21.3465 311.152 21.7604C310.472 22.1652 309.938 22.7125 309.552 23.4025C309.165 24.0832 308.968 24.8421 308.958 25.6792V29.1427C308.958 30.1914 309.152 31.0975 309.538 31.861C309.933 32.6245 310.49 33.2133 311.208 33.6272C311.925 34.0412 312.776 34.2482 313.76 34.2482C314.413 34.2482 315.011 34.1562 315.554 33.9722C316.097 33.7882 316.561 33.5122 316.948 33.1443C317.334 32.7763 317.629 32.3256 317.831 31.792L323.268 32.1508C322.992 33.4571 322.426 34.5977 321.57 35.5728C320.724 36.5387 319.629 37.2931 318.286 37.8358C316.952 38.3694 315.412 38.6361 313.664 38.6361Z" fill="#F7F7F7"/>
<path d="M20.746 1.33325H47.7301V17.2063H20.746V1.33325Z" fill="#F8B501"/>
<path d="M0.111084 29.9047H47.7301V45.7777H0.111084V29.9047Z" fill="#F8B501"/>
<path d="M0.111084 1.33325H15.9841V25.1428H0.111084V1.33325Z" fill="#F8B501"/>
</svg>
