<svg width="317" height="42" viewBox="0 0 317 42" fill="none" xmlns="http://www.w3.org/2000/svg">
<path d="M82.5084 17.4707H77.069C76.9696 16.7669 76.7668 16.1419 76.4604 15.5954C76.1541 15.0407 75.7609 14.5688 75.2807 14.1797C74.8005 13.7906 74.2458 13.4925 73.6166 13.2856C72.9956 13.0786 72.3209 12.9751 71.5923 12.9751C70.2759 12.9751 69.1292 13.3021 68.1523 13.9562C67.1754 14.6019 66.4178 15.5458 65.8797 16.7876C65.3415 18.0212 65.0725 19.5198 65.0725 21.2832C65.0725 23.0964 65.3415 24.6197 65.8797 25.8533C66.4261 27.0869 67.1878 28.0183 68.1647 28.6475C69.1417 29.2767 70.2718 29.5913 71.555 29.5913C72.2753 29.5913 72.9418 29.4961 73.5545 29.3057C74.1754 29.1153 74.726 28.8379 75.2061 28.4737C75.6863 28.1011 76.0837 27.6499 76.3983 27.12C76.7212 26.5902 76.9448 25.9858 77.069 25.3069L82.5084 25.3317C82.3676 26.4991 82.0158 27.6251 81.4528 28.7096C80.8981 29.7859 80.1488 30.7504 79.205 31.6032C78.2694 32.4477 77.1518 33.1183 75.8519 33.615C74.5604 34.1035 73.0991 34.3477 71.4681 34.3477C69.1996 34.3477 67.1712 33.8344 65.3829 32.8078C63.6029 31.7812 62.1955 30.2951 61.1606 28.3495C60.1339 26.4039 59.6206 24.0485 59.6206 21.2832C59.6206 18.5097 60.1422 16.1501 61.1854 14.2045C62.2286 12.2589 63.6443 10.777 65.4326 9.75863C67.2209 8.73202 69.2327 8.21871 71.4681 8.21871C72.9418 8.21871 74.3079 8.42569 75.5663 8.83965C76.833 9.2536 77.9548 9.85798 78.9318 10.6528C79.9087 11.4393 80.7035 12.4038 81.3162 13.5463C81.9371 14.6889 82.3345 15.997 82.5084 17.4707ZM93.1351 34.3726C91.206 34.3726 89.5378 33.9627 88.1303 33.1431C86.7311 32.3152 85.6507 31.1644 84.889 29.6907C84.1274 28.2087 83.7465 26.4908 83.7465 24.5369C83.7465 22.5665 84.1274 20.8444 84.889 19.3707C85.6507 17.8888 86.7311 16.738 88.1303 15.9183C89.5378 15.0904 91.206 14.6765 93.1351 14.6765C95.0641 14.6765 96.7282 15.0904 98.1274 15.9183C99.5349 16.738 100.619 17.8888 101.381 19.3707C102.143 20.8444 102.524 22.5665 102.524 24.5369C102.524 26.4908 102.143 28.2087 101.381 29.6907C100.619 31.1644 99.5349 32.3152 98.1274 33.1431C96.7282 33.9627 95.0641 34.3726 93.1351 34.3726ZM93.1599 30.2744C94.0375 30.2744 94.7702 30.026 95.358 29.5293C95.9458 29.0242 96.3888 28.3371 96.6868 27.4677C96.9932 26.5984 97.1463 25.6091 97.1463 24.4997C97.1463 23.3903 96.9932 22.4009 96.6868 21.5316C96.3888 20.6623 95.9458 19.9751 95.358 19.4701C94.7702 18.9651 94.0375 18.7125 93.1599 18.7125C92.274 18.7125 91.5289 18.9651 90.9245 19.4701C90.3284 19.9751 89.8772 20.6623 89.5709 21.5316C89.2728 22.4009 89.1238 23.3903 89.1238 24.4997C89.1238 25.6091 89.2728 26.5984 89.5709 27.4677C89.8772 28.3371 90.3284 29.0242 90.9245 29.5293C91.5289 30.026 92.274 30.2744 93.1599 30.2744ZM104.215 34V14.9248H109.257V18.2903H109.481C109.878 17.1726 110.54 16.2909 111.468 15.6451C112.395 14.9993 113.504 14.6765 114.796 14.6765C116.104 14.6765 117.217 15.0035 118.136 15.6575C119.055 16.3033 119.668 17.1809 119.974 18.2903H120.173C120.562 17.1975 121.266 16.324 122.284 15.6699C123.311 15.0076 124.524 14.6765 125.923 14.6765C127.703 14.6765 129.148 15.2436 130.257 16.3778C131.375 17.5038 131.934 19.1017 131.934 21.1714V34H126.656V22.2146C126.656 21.1549 126.374 20.3601 125.811 19.8302C125.248 19.3004 124.545 19.0354 123.7 19.0354C122.74 19.0354 121.99 19.3418 121.452 19.9544C120.914 20.5588 120.645 21.3577 120.645 22.3512V34H115.516V22.1029C115.516 21.1673 115.247 20.4222 114.709 19.8675C114.179 19.3128 113.479 19.0354 112.61 19.0354C112.022 19.0354 111.492 19.1845 111.021 19.4825C110.557 19.7723 110.188 20.1821 109.915 20.712C109.642 21.2335 109.505 21.8462 109.505 22.5499V34H104.215ZM134.364 41.1532V14.9248H139.58V18.1289H139.816C140.048 17.6156 140.383 17.094 140.822 16.5641C141.269 16.026 141.848 15.5789 142.56 15.2229C143.281 14.8586 144.175 14.6765 145.243 14.6765C146.634 14.6765 147.917 15.0407 149.093 15.7693C150.268 16.4896 151.208 17.5783 151.912 19.0354C152.615 20.4843 152.967 22.3016 152.967 24.4872C152.967 26.615 152.624 28.4116 151.937 29.877C151.258 31.3341 150.33 32.4394 149.155 33.1928C147.987 33.9379 146.679 34.3105 145.23 34.3105C144.204 34.3105 143.33 34.1407 142.61 33.8013C141.898 33.4619 141.314 33.0355 140.859 32.5222C140.404 32.0006 140.056 31.4749 139.816 30.945H139.654V41.1532H134.364ZM139.543 24.4624C139.543 25.5967 139.7 26.586 140.015 27.4305C140.329 28.275 140.785 28.9332 141.381 29.4051C141.977 29.8687 142.701 30.1005 143.554 30.1005C144.415 30.1005 145.143 29.8646 145.74 29.3927C146.336 28.9125 146.787 28.2501 147.093 27.4057C147.408 26.5529 147.565 25.5718 147.565 24.4624C147.565 23.3613 147.412 22.3926 147.106 21.5564C146.799 20.7202 146.348 20.0662 145.752 19.5943C145.156 19.1224 144.423 18.8864 143.554 18.8864C142.693 18.8864 141.964 19.1141 141.368 19.5694C140.78 20.0248 140.329 20.6706 140.015 21.5068C139.7 22.3429 139.543 23.3282 139.543 24.4624ZM160.185 34.3601C158.968 34.3601 157.883 34.149 156.931 33.7268C155.979 33.2963 155.226 32.6629 154.671 31.8267C154.125 30.9822 153.852 29.9308 153.852 28.6724C153.852 27.6126 154.046 26.7226 154.435 26.0023C154.824 25.282 155.354 24.7025 156.025 24.2637C156.695 23.8249 157.457 23.4938 158.31 23.2702C159.171 23.0467 160.073 22.8894 161.017 22.7983C162.127 22.6824 163.021 22.5748 163.7 22.4754C164.378 22.3678 164.871 22.2105 165.177 22.0035C165.484 21.7965 165.637 21.4902 165.637 21.0845V21.01C165.637 20.2235 165.389 19.615 164.892 19.1845C164.403 18.7539 163.708 18.5387 162.805 18.5387C161.853 18.5387 161.096 18.7498 160.533 19.172C159.97 19.586 159.597 20.1076 159.415 20.7368L154.522 20.3394C154.77 19.1803 155.259 18.1785 155.988 17.3341C156.716 16.4813 157.656 15.8273 158.807 15.3719C159.966 14.9083 161.307 14.6765 162.83 14.6765C163.89 14.6765 164.904 14.8006 165.873 15.049C166.85 15.2974 167.715 15.6824 168.468 16.204C169.23 16.7255 169.83 17.3962 170.269 18.2158C170.708 19.0271 170.927 19.9999 170.927 21.1342V34H165.91V31.3548H165.761C165.455 31.9509 165.045 32.4766 164.532 32.932C164.018 33.3791 163.402 33.7309 162.681 33.9876C161.961 34.236 161.129 34.3601 160.185 34.3601ZM161.7 30.709C162.478 30.709 163.166 30.5559 163.762 30.2495C164.358 29.9349 164.826 29.5127 165.165 28.9828C165.504 28.453 165.674 27.8527 165.674 27.1821V25.1579C165.509 25.2655 165.281 25.3648 164.991 25.4559C164.71 25.5387 164.391 25.6174 164.035 25.6919C163.679 25.7581 163.323 25.8202 162.967 25.8781C162.611 25.9278 162.288 25.9734 161.998 26.0148C161.377 26.1058 160.835 26.2507 160.371 26.4494C159.908 26.6481 159.548 26.9172 159.291 27.2566C159.034 27.5878 158.906 28.0018 158.906 28.4985C158.906 29.2188 159.167 29.7694 159.688 30.1502C160.218 30.5228 160.889 30.709 161.7 30.709ZM178.573 22.9722V34H173.283V14.9248H178.325V18.2903H178.549C178.971 17.1809 179.679 16.3033 180.672 15.6575C181.666 15.0035 182.87 14.6765 184.286 14.6765C185.611 14.6765 186.766 14.9662 187.751 15.5458C188.736 16.1253 189.502 16.9532 190.048 18.0295C190.595 19.0975 190.868 20.3725 190.868 21.8545V34H185.578V22.7983C185.586 21.6309 185.288 20.7202 184.683 20.0662C184.079 19.4038 183.247 19.0727 182.187 19.0727C181.475 19.0727 180.846 19.2258 180.3 19.5322C179.762 19.8385 179.339 20.2856 179.033 20.8734C178.735 21.4529 178.582 22.1525 178.573 22.9722ZM195.872 41.1532C195.202 41.1532 194.572 41.0994 193.985 40.9917C193.405 40.8924 192.925 40.7641 192.544 40.6068L193.736 36.6576C194.357 36.848 194.916 36.9515 195.413 36.9681C195.918 36.9846 196.352 36.8687 196.717 36.6204C197.089 36.372 197.391 35.9497 197.623 35.3536L197.934 34.5464L191.091 14.9248H196.655L200.604 28.9332H200.802L204.789 14.9248H210.39L202.976 36.0615C202.62 37.0881 202.135 37.9823 201.523 38.744C200.918 39.5139 200.152 40.1059 199.225 40.5198C198.298 40.9421 197.18 41.1532 195.872 41.1532ZM217.793 34V8.56643H227.827C229.756 8.56643 231.4 8.93486 232.758 9.6717C234.115 10.4003 235.15 11.4145 235.862 12.7143C236.583 14.0058 236.943 15.4961 236.943 17.185C236.943 18.874 236.578 20.3642 235.85 21.6558C235.121 22.9473 234.066 23.9532 232.683 24.6735C231.309 25.3938 229.645 25.754 227.691 25.754H221.295V21.4447H226.821C227.856 21.4447 228.709 21.2667 229.38 20.9107C230.059 20.5464 230.564 20.0455 230.895 19.408C231.234 18.7622 231.404 18.0212 231.404 17.185C231.404 16.3406 231.234 15.6037 230.895 14.9745C230.564 14.337 230.059 13.8444 229.38 13.4967C228.701 13.1407 227.84 12.9627 226.797 12.9627H223.17V34H217.793ZM238.588 34V14.9248H243.717V18.253H243.915C244.263 17.0691 244.847 16.175 245.666 15.5706C246.486 14.9579 247.43 14.6516 248.498 14.6516C248.763 14.6516 249.048 14.6682 249.355 14.7013C249.661 14.7344 249.93 14.7799 250.162 14.8379V19.5322C249.914 19.4577 249.57 19.3914 249.131 19.3335C248.692 19.2755 248.291 19.2465 247.927 19.2465C247.148 19.2465 246.453 19.4163 245.84 19.7557C245.236 20.0869 244.756 20.5505 244.4 21.1466C244.052 21.7427 243.878 22.4299 243.878 23.2081V34H238.588ZM258.879 34.3726C256.95 34.3726 255.282 33.9627 253.874 33.1431C252.475 32.3152 251.395 31.1644 250.633 29.6907C249.871 28.2087 249.491 26.4908 249.491 24.5369C249.491 22.5665 249.871 20.8444 250.633 19.3707C251.395 17.8888 252.475 16.738 253.874 15.9183C255.282 15.0904 256.95 14.6765 258.879 14.6765C260.808 14.6765 262.472 15.0904 263.872 15.9183C265.279 16.738 266.364 17.8888 267.125 19.3707C267.887 20.8444 268.268 22.5665 268.268 24.5369C268.268 26.4908 267.887 28.2087 267.125 29.6907C266.364 31.1644 265.279 32.3152 263.872 33.1431C262.472 33.9627 260.808 34.3726 258.879 34.3726ZM258.904 30.2744C259.782 30.2744 260.514 30.026 261.102 29.5293C261.69 29.0242 262.133 28.3371 262.431 27.4677C262.737 26.5984 262.89 25.6091 262.89 24.4997C262.89 23.3903 262.737 22.4009 262.431 21.5316C262.133 20.6623 261.69 19.9751 261.102 19.4701C260.514 18.9651 259.782 18.7125 258.904 18.7125C258.018 18.7125 257.273 18.9651 256.669 19.4701C256.073 19.9751 255.621 20.6623 255.315 21.5316C255.017 22.4009 254.868 23.3903 254.868 24.4997C254.868 25.6091 255.017 26.5984 255.315 27.4677C255.621 28.3371 256.073 29.0242 256.669 29.5293C257.273 30.026 258.018 30.2744 258.904 30.2744ZM280.217 14.9248V18.8988H268.444V14.9248H280.217ZM271.139 34V13.5463C271.139 12.1637 271.408 11.0171 271.946 10.1064C272.493 9.19565 273.238 8.51262 274.182 8.05726C275.125 7.60191 276.198 7.37423 277.398 7.37423C278.209 7.37423 278.95 7.43633 279.621 7.56052C280.3 7.6847 280.805 7.79647 281.136 7.89582L280.192 11.8698C279.985 11.8036 279.729 11.7415 279.422 11.6835C279.124 11.6256 278.818 11.5966 278.503 11.5966C277.725 11.5966 277.183 11.7787 276.876 12.143C276.57 12.499 276.417 12.9999 276.417 13.6457V34H271.139ZM281.7 34V14.9248H286.991V34H281.7ZM284.358 12.4659C283.572 12.4659 282.897 12.2051 282.334 11.6835C281.779 11.1537 281.502 10.5203 281.502 9.78347C281.502 9.0549 281.779 8.42983 282.334 7.90824C282.897 7.37837 283.572 7.11344 284.358 7.11344C285.145 7.11344 285.815 7.37837 286.37 7.90824C286.933 8.42983 287.214 9.0549 287.214 9.78347C287.214 10.5203 286.933 11.1537 286.37 11.6835C285.815 12.2051 285.145 12.4659 284.358 12.4659ZM294.771 8.56643V34H289.48V8.56643H294.771ZM305.953 34.3726C303.991 34.3726 302.302 33.9752 300.886 33.1804C299.479 32.3773 298.394 31.243 297.632 29.7776C296.871 28.3039 296.49 26.5612 296.49 24.5493C296.49 22.5872 296.871 20.8651 297.632 19.3832C298.394 17.9012 299.466 16.7462 300.849 15.9183C302.24 15.0904 303.871 14.6765 305.742 14.6765C307 14.6765 308.172 14.8793 309.256 15.285C310.349 15.6824 311.301 16.2826 312.113 17.0857C312.932 17.8888 313.57 18.8988 314.025 20.1159C314.481 21.3246 314.708 22.7403 314.708 24.3631V25.8161H298.601V22.5375H309.728C309.728 21.7758 309.563 21.1011 309.232 20.5133C308.9 19.9254 308.441 19.4659 307.853 19.1348C307.274 18.7953 306.599 18.6256 305.829 18.6256C305.026 18.6256 304.314 18.8119 303.693 19.1845C303.08 19.5487 302.6 20.0413 302.252 20.6623C301.905 21.2749 301.727 21.958 301.718 22.7114V25.8285C301.718 26.7723 301.892 27.5878 302.24 28.275C302.596 28.9621 303.097 29.492 303.743 29.8646C304.388 30.2371 305.154 30.4234 306.04 30.4234C306.628 30.4234 307.166 30.3406 307.654 30.175C308.143 30.0094 308.561 29.7611 308.909 29.4299C309.256 29.0987 309.521 28.6931 309.703 28.2129L314.596 28.5358C314.348 29.7114 313.839 30.738 313.069 31.6156C312.307 32.4849 311.322 33.1638 310.113 33.6523C308.913 34.1325 307.526 34.3726 305.953 34.3726Z" fill="#3A3F47"/>
<path d="M18.5714 1H42.8572V15.2857H18.5714V1Z" fill="#F8B501"/>
<path d="M0 26.7143H42.8572V41H0V26.7143Z" fill="#F8B501"/>
<path d="M0 1H14.2857V22.4286H0V1Z" fill="#F8B501"/>
</svg>
