<svg width="226" height="48" viewBox="0 0 226 48" fill="none" xmlns="http://www.w3.org/2000/svg">
<path d="M91.7872 19.8562H85.7434C85.633 19.0743 85.4076 18.3798 85.0673 17.7727C84.7269 17.1563 84.2899 16.632 83.7564 16.1996C83.2229 15.7673 82.6065 15.4361 81.9074 15.2061C81.2175 14.9761 80.4677 14.8612 79.6582 14.8612C78.1956 14.8612 76.9215 15.2245 75.836 15.9512C74.7505 16.6688 73.9088 17.7175 73.3109 19.0973C72.7129 20.468 72.414 22.133 72.414 24.0924C72.414 26.107 72.7129 27.7996 73.3109 29.1703C73.918 30.541 74.7643 31.5758 75.8498 32.275C76.9353 32.9741 78.191 33.3237 79.6168 33.3237C80.4171 33.3237 81.1577 33.2179 81.8384 33.0063C82.5283 32.7947 83.1401 32.4866 83.6736 32.0818C84.2072 31.6678 84.6487 31.1665 84.9983 30.5777C85.357 29.989 85.6054 29.3175 85.7434 28.5632L91.7872 28.5908C91.6308 29.8878 91.2398 31.1389 90.6143 32.344C89.998 33.5398 89.1654 34.6115 88.1168 35.559C87.0773 36.4973 85.8354 37.2425 84.3911 37.7944C82.9561 38.3372 81.3324 38.6085 79.5202 38.6085C76.9997 38.6085 74.7459 38.0382 72.7589 36.8975C70.7811 35.7568 69.2173 34.1056 68.0674 31.9438C66.9267 29.782 66.3564 27.1649 66.3564 24.0924C66.3564 21.0107 66.9359 18.389 68.095 16.2272C69.2541 14.0654 70.8271 12.4188 72.8141 11.2873C74.8011 10.1466 77.0365 9.57629 79.5202 9.57629C81.1577 9.57629 82.6755 9.80627 84.0738 10.2662C85.4812 10.7262 86.7277 11.3977 87.8132 12.2808C88.8987 13.1547 89.7818 14.2264 90.4625 15.4959C91.1524 16.7654 91.594 18.2188 91.7872 19.8562ZM99.8966 25.969V38.2222H94.0184V9.96265H99.731V20.7669H99.9794C100.458 19.5159 101.23 18.5362 102.298 17.8278C103.365 17.1103 104.703 16.7516 106.313 16.7516C107.785 16.7516 109.068 17.0735 110.163 17.7175C111.267 18.3522 112.122 19.2675 112.729 20.4634C113.346 21.6501 113.649 23.0713 113.64 24.7271V38.2222H107.762V25.7758C107.771 24.4696 107.44 23.4531 106.768 22.7263C106.106 21.9996 105.177 21.6363 103.981 21.6363C103.181 21.6363 102.472 21.8064 101.856 22.1468C101.249 22.4872 100.771 22.9839 100.421 23.6371C100.081 24.281 99.9058 25.0583 99.8966 25.969ZM116.323 38.2222V17.0275H122.022V20.7256H122.243C122.629 19.4101 123.278 18.4166 124.188 17.7451C125.099 17.0643 126.148 16.724 127.334 16.724C127.629 16.724 127.946 16.7424 128.287 16.7792C128.627 16.816 128.926 16.8665 129.183 16.9309V22.1468C128.907 22.064 128.526 21.9904 128.038 21.926C127.551 21.8616 127.104 21.8294 126.7 21.8294C125.835 21.8294 125.062 22.018 124.382 22.3952C123.71 22.7631 123.176 23.2783 122.781 23.9406C122.395 24.603 122.201 25.3665 122.201 26.2312V38.2222H116.323ZM138.869 38.6361C136.726 38.6361 134.872 38.1808 133.309 37.2701C131.754 36.3502 130.553 35.0715 129.707 33.4341C128.861 31.7874 128.438 29.8786 128.438 27.7076C128.438 25.5183 128.861 23.6049 129.707 21.9674C130.553 20.3208 131.754 19.0421 133.309 18.1314C134.872 17.2115 136.726 16.7516 138.869 16.7516C141.013 16.7516 142.862 17.2115 144.416 18.1314C145.98 19.0421 147.185 20.3208 148.032 21.9674C148.878 23.6049 149.301 25.5183 149.301 27.7076C149.301 29.8786 148.878 31.7874 148.032 33.4341C147.185 35.0715 145.98 36.3502 144.416 37.2701C142.862 38.1808 141.013 38.6361 138.869 38.6361ZM138.897 34.0826C139.872 34.0826 140.686 33.8066 141.339 33.2547C141.992 32.6935 142.485 31.93 142.816 30.9641C143.156 29.9982 143.326 28.8989 143.326 27.6662C143.326 26.4336 143.156 25.3343 142.816 24.3684C142.485 23.4025 141.992 22.639 141.339 22.0778C140.686 21.5167 139.872 21.2361 138.897 21.2361C137.913 21.2361 137.085 21.5167 136.413 22.0778C135.751 22.639 135.25 23.4025 134.909 24.3684C134.578 25.3343 134.412 26.4336 134.412 27.6662C134.412 28.8989 134.578 29.9982 134.909 30.9641C135.25 31.93 135.751 32.6935 136.413 33.2547C137.085 33.8066 137.913 34.0826 138.897 34.0826ZM151.18 38.2222V17.0275H156.783V20.7669H157.031C157.473 19.5251 158.209 18.5454 159.239 17.8278C160.269 17.1103 161.502 16.7516 162.937 16.7516C164.39 16.7516 165.628 17.1149 166.649 17.8416C167.67 18.5592 168.351 19.5343 168.691 20.7669H168.912C169.344 19.5527 170.126 18.5822 171.257 17.8554C172.398 17.1195 173.746 16.7516 175.3 16.7516C177.278 16.7516 178.883 17.3817 180.116 18.642C181.358 19.893 181.979 21.6685 181.979 23.9682V38.2222H176.115V25.1273C176.115 23.9498 175.802 23.0667 175.176 22.478C174.551 21.8892 173.769 21.5949 172.83 21.5949C171.763 21.5949 170.931 21.9352 170.333 22.616C169.735 23.2875 169.436 24.1752 169.436 25.2791V38.2222H163.737V25.0031C163.737 23.9636 163.438 23.1357 162.84 22.5194C162.252 21.903 161.474 21.5949 160.508 21.5949C159.855 21.5949 159.266 21.7604 158.742 22.0916C158.227 22.4136 157.818 22.8689 157.514 23.4577C157.21 24.0372 157.059 24.7179 157.059 25.4999V38.2222H151.18ZM190.723 38.6223C189.371 38.6223 188.166 38.3878 187.108 37.9186C186.05 37.4402 185.213 36.7365 184.597 35.8074C183.989 34.8691 183.686 33.7008 183.686 32.3026C183.686 31.1251 183.902 30.1362 184.334 29.3359C184.767 28.5356 185.355 27.8916 186.101 27.4041C186.846 26.9165 187.692 26.5486 188.639 26.3002C189.596 26.0518 190.599 25.877 191.648 25.7758C192.88 25.6471 193.874 25.5275 194.628 25.4171C195.382 25.2975 195.93 25.1227 196.27 24.8927C196.61 24.6628 196.781 24.3224 196.781 23.8716V23.7888C196.781 22.9149 196.505 22.2388 195.953 21.7604C195.41 21.2821 194.637 21.0429 193.635 21.0429C192.577 21.0429 191.735 21.2775 191.109 21.7466C190.484 22.2066 190.07 22.7861 189.868 23.4853L184.431 23.0437C184.707 21.7558 185.25 20.6428 186.059 19.7045C186.869 18.757 187.913 18.0302 189.191 17.5243C190.479 17.0091 191.97 16.7516 193.662 16.7516C194.84 16.7516 195.967 16.8895 197.043 17.1655C198.128 17.4415 199.09 17.8692 199.927 18.4488C200.773 19.0283 201.44 19.7735 201.928 20.6842C202.415 21.5857 202.659 22.6666 202.659 23.9268V38.2222H197.084V35.2831H196.919C196.578 35.9454 196.123 36.5295 195.553 37.0355C194.982 37.5322 194.297 37.9232 193.497 38.2084C192.696 38.4843 191.772 38.6223 190.723 38.6223ZM192.407 34.5655C193.271 34.5655 194.035 34.3954 194.697 34.055C195.359 33.7054 195.879 33.2363 196.256 32.6475C196.633 32.0588 196.822 31.3919 196.822 30.6467V28.3976C196.638 28.5172 196.385 28.6275 196.063 28.7287C195.75 28.8207 195.396 28.9081 195.001 28.9909C194.605 29.0645 194.21 29.1335 193.814 29.1979C193.418 29.2531 193.06 29.3037 192.738 29.3497C192.048 29.4509 191.445 29.6118 190.93 29.8326C190.415 30.0534 190.015 30.3524 189.73 30.7295C189.444 31.0975 189.302 31.5574 189.302 32.1094C189.302 32.9097 189.592 33.5214 190.171 33.9446C190.76 34.3586 191.505 34.5655 192.407 34.5655ZM210.189 17.0275L214.08 24.4374L218.068 17.0275H224.098L217.957 27.6248L224.263 38.2222H218.261L214.08 30.8951L209.968 38.2222H203.897L210.189 27.6248L204.117 17.0275H210.189Z" fill="#F7F7F7"/>
<path d="M20.746 1.33325H47.7301V17.2063H20.746V1.33325Z" fill="#F8B501"/>
<path d="M0.111084 29.9047H47.7301V45.7777H0.111084V29.9047Z" fill="#F8B501"/>
<path d="M0.111084 1.33325H15.9841V25.1428H0.111084V1.33325Z" fill="#F8B501"/>
</svg>
