<svg width="317" height="47" viewBox="0 0 317 47" fill="none" xmlns="http://www.w3.org/2000/svg">
<path d="M66.742 38V9.74048H72.7168V33.0739H84.832V38H66.742ZM96.3117 38.414C94.1683 38.414 92.3147 37.9586 90.7509 37.0479C89.1963 36.128 87.9958 34.8493 87.1495 33.2119C86.3032 31.5653 85.88 29.6565 85.88 27.4855C85.88 25.2961 86.3032 23.3827 87.1495 21.7453C87.9958 20.0986 89.1963 18.82 90.7509 17.9092C92.3147 16.9893 94.1683 16.5294 96.3117 16.5294C98.4551 16.5294 100.304 16.9893 101.859 17.9092C103.423 18.82 104.628 20.0986 105.474 21.7453C106.32 23.3827 106.743 25.2961 106.743 27.4855C106.743 29.6565 106.32 31.5653 105.474 33.2119C104.628 34.8493 103.423 36.128 101.859 37.0479C100.304 37.9586 98.4551 38.414 96.3117 38.414ZM96.3393 33.8604C97.3144 33.8604 98.1285 33.5845 98.7817 33.0325C99.4348 32.4714 99.927 31.7078 100.258 30.7419C100.598 29.776 100.769 28.6768 100.769 27.4441C100.769 26.2114 100.598 25.1121 100.258 24.1462C99.927 23.1803 99.4348 22.4168 98.7817 21.8556C98.1285 21.2945 97.3144 21.0139 96.3393 21.0139C95.355 21.0139 94.5271 21.2945 93.8556 21.8556C93.1932 22.4168 92.6919 23.1803 92.3515 24.1462C92.0204 25.1121 91.8548 26.2114 91.8548 27.4441C91.8548 28.6768 92.0204 29.776 92.3515 30.7419C92.6919 31.7078 93.1932 32.4714 93.8556 33.0325C94.5271 33.5845 95.355 33.8604 96.3393 33.8604ZM118.171 46.3895C116.267 46.3895 114.634 46.1274 113.273 45.603C111.921 45.0879 110.844 44.3841 110.044 43.4918C109.244 42.5995 108.724 41.5968 108.485 40.4837L113.921 39.7524C114.087 40.1756 114.349 40.5711 114.708 40.9391C115.067 41.3071 115.541 41.6014 116.129 41.8222C116.727 42.0522 117.454 42.1672 118.309 42.1672C119.588 42.1672 120.641 41.8544 121.469 41.2289C122.306 40.6125 122.725 39.5776 122.725 38.1242V34.2468H122.477C122.219 34.8355 121.833 35.3921 121.318 35.9164C120.802 36.4408 120.14 36.8685 119.331 37.1997C118.521 37.5308 117.555 37.6964 116.433 37.6964C114.841 37.6964 113.393 37.3285 112.086 36.5925C110.789 35.8474 109.754 34.7113 108.982 33.1843C108.218 31.648 107.836 29.707 107.836 27.3613C107.836 24.9603 108.227 22.9549 109.009 21.3451C109.791 19.7353 110.831 18.5302 112.128 17.7299C113.434 16.9296 114.864 16.5294 116.419 16.5294C117.606 16.5294 118.599 16.7318 119.4 17.1365C120.2 17.5321 120.844 18.0288 121.331 18.6268C121.828 19.2155 122.21 19.7951 122.477 20.3654H122.697V16.8054H128.534V38.207C128.534 40.01 128.093 41.5186 127.21 42.7329C126.326 43.9472 125.103 44.8579 123.539 45.465C121.984 46.0814 120.195 46.3895 118.171 46.3895ZM118.296 33.2809C119.243 33.2809 120.043 33.0463 120.697 32.5772C121.359 32.0988 121.865 31.4181 122.214 30.535C122.573 29.6427 122.753 28.5756 122.753 27.3337C122.753 26.0918 122.578 25.0155 122.228 24.1048C121.879 23.1849 121.373 22.472 120.71 21.966C120.048 21.4601 119.243 21.2071 118.296 21.2071C117.33 21.2071 116.516 21.4693 115.853 21.9936C115.191 22.5088 114.69 23.2263 114.349 24.1462C114.009 25.0661 113.839 26.1286 113.839 27.3337C113.839 28.5572 114.009 29.6151 114.349 30.5074C114.699 31.3905 115.2 32.0758 115.853 32.5634C116.516 33.0417 117.33 33.2809 118.296 33.2809ZM140.845 38.414C138.702 38.414 136.848 37.9586 135.284 37.0479C133.73 36.128 132.529 34.8493 131.683 33.2119C130.837 31.5653 130.414 29.6565 130.414 27.4855C130.414 25.2961 130.837 23.3827 131.683 21.7453C132.529 20.0986 133.73 18.82 135.284 17.9092C136.848 16.9893 138.702 16.5294 140.845 16.5294C142.989 16.5294 144.838 16.9893 146.392 17.9092C147.956 18.82 149.161 20.0986 150.008 21.7453C150.854 23.3827 151.277 25.2961 151.277 27.4855C151.277 29.6565 150.854 31.5653 150.008 33.2119C149.161 34.8493 147.956 36.128 146.392 37.0479C144.838 37.9586 142.989 38.414 140.845 38.414ZM140.873 33.8604C141.848 33.8604 142.662 33.5845 143.315 33.0325C143.968 32.4714 144.461 31.7078 144.792 30.7419C145.132 29.776 145.302 28.6768 145.302 27.4441C145.302 26.2114 145.132 25.1121 144.792 24.1462C144.461 23.1803 143.968 22.4168 143.315 21.8556C142.662 21.2945 141.848 21.0139 140.873 21.0139C139.889 21.0139 139.061 21.2945 138.389 21.8556C137.727 22.4168 137.225 23.1803 136.885 24.1462C136.554 25.1121 136.388 26.2114 136.388 27.4441C136.388 28.6768 136.554 29.776 136.885 30.7419C137.225 31.7078 137.727 32.4714 138.389 33.0325C139.061 33.5845 139.889 33.8604 140.873 33.8604ZM160.317 38V9.74048H171.632C173.711 9.74048 175.445 10.0487 176.834 10.665C178.223 11.2813 179.267 12.1368 179.966 13.2315C180.666 14.317 181.015 15.5681 181.015 16.9847C181.015 18.0886 180.794 19.0591 180.353 19.8962C179.911 20.7242 179.304 21.4049 178.531 21.9384C177.768 22.4628 176.894 22.8353 175.91 23.0561V23.3321C176.986 23.3781 177.993 23.6817 178.931 24.2428C179.879 24.8039 180.647 25.5905 181.236 26.6024C181.825 27.6051 182.119 28.8009 182.119 30.19C182.119 31.6894 181.746 33.0279 181.001 34.2054C180.265 35.3737 179.175 36.2982 177.731 36.9789C176.287 37.6596 174.507 38 172.391 38H160.317ZM166.292 33.1153H171.163C172.828 33.1153 174.042 32.7979 174.806 32.1632C175.569 31.5193 175.951 30.6637 175.951 29.5967C175.951 28.8147 175.762 28.1248 175.385 27.5269C175.008 26.9289 174.47 26.4598 173.771 26.1194C173.081 25.779 172.258 25.6089 171.301 25.6089H166.292V33.1153ZM166.292 21.5659H170.721C171.54 21.5659 172.267 21.4233 172.902 21.1381C173.545 20.8438 174.051 20.4298 174.419 19.8962C174.797 19.3627 174.985 18.7234 174.985 17.9782C174.985 16.9571 174.622 16.1338 173.895 15.5083C173.177 14.8828 172.156 14.57 170.832 14.57H166.292V21.5659ZM183.953 38V16.8054H189.652V20.5034H189.873C190.259 19.1879 190.908 18.1944 191.819 17.5229C192.729 16.8422 193.778 16.5018 194.965 16.5018C195.259 16.5018 195.576 16.5202 195.917 16.557C196.257 16.5938 196.556 16.6444 196.814 16.7088V21.9246C196.538 21.8418 196.156 21.7683 195.668 21.7039C195.181 21.6395 194.735 21.6073 194.33 21.6073C193.465 21.6073 192.693 21.7959 192.012 22.173C191.34 22.541 190.807 23.0561 190.411 23.7185C190.025 24.3808 189.832 25.1443 189.832 26.009V38H183.953ZM203.347 38.4002C201.994 38.4002 200.789 38.1656 199.731 37.6964C198.674 37.2181 197.836 36.5144 197.22 35.5852C196.613 34.6469 196.309 33.4787 196.309 32.0804C196.309 30.9029 196.526 29.914 196.958 29.1137C197.39 28.3134 197.979 27.6695 198.724 27.1819C199.469 26.6944 200.316 26.3264 201.263 26.078C202.22 25.8296 203.223 25.6549 204.271 25.5537C205.504 25.4249 206.497 25.3053 207.252 25.1949C208.006 25.0753 208.553 24.9005 208.894 24.6706C209.234 24.4406 209.404 24.1002 209.404 23.6495V23.5667C209.404 22.6928 209.128 22.0166 208.576 21.5383C208.034 21.0599 207.261 20.8208 206.258 20.8208C205.2 20.8208 204.359 21.0553 203.733 21.5245C203.108 21.9844 202.694 22.564 202.491 23.2631L197.055 22.8215C197.331 21.5337 197.873 20.4206 198.683 19.4823C199.492 18.5348 200.536 17.8081 201.815 17.3021C203.103 16.787 204.593 16.5294 206.286 16.5294C207.463 16.5294 208.59 16.6674 209.666 16.9433C210.752 17.2193 211.713 17.6471 212.55 18.2266C213.397 18.8062 214.064 19.5513 214.551 20.462C215.039 21.3635 215.282 22.4444 215.282 23.7047V38H209.708V35.0609H209.542C209.202 35.7232 208.747 36.3074 208.176 36.8133C207.606 37.3101 206.921 37.701 206.12 37.9862C205.32 38.2622 204.395 38.4002 203.347 38.4002ZM205.03 34.3434C205.895 34.3434 206.658 34.1732 207.321 33.8328C207.983 33.4833 208.503 33.0141 208.88 32.4254C209.257 31.8366 209.446 31.1697 209.446 30.4246V28.1754C209.262 28.295 209.009 28.4054 208.687 28.5066C208.374 28.5986 208.02 28.686 207.624 28.7687C207.229 28.8423 206.833 28.9113 206.438 28.9757C206.042 29.0309 205.683 29.0815 205.361 29.1275C204.671 29.2287 204.069 29.3897 203.554 29.6105C203.039 29.8312 202.638 30.1302 202.353 30.5074C202.068 30.8753 201.925 31.3353 201.925 31.8872C201.925 32.6875 202.215 33.2993 202.795 33.7224C203.384 34.1364 204.129 34.3434 205.03 34.3434ZM223.778 25.7469V38H217.9V16.8054H223.502V20.5448H223.751C224.22 19.3121 225.006 18.337 226.11 17.6195C227.214 16.8928 228.553 16.5294 230.126 16.5294C231.597 16.5294 232.881 16.8514 233.975 17.4953C235.07 18.1392 235.921 19.0591 236.528 20.255C237.135 21.4417 237.439 22.8583 237.439 24.505V38H231.561V25.5537C231.57 24.2566 231.239 23.2447 230.567 22.518C229.896 21.7821 228.971 21.4141 227.794 21.4141C227.003 21.4141 226.303 21.5843 225.696 21.9246C225.098 22.265 224.629 22.7618 224.289 23.4149C223.958 24.0588 223.787 24.8361 223.778 25.7469ZM247.939 38.345C246.329 38.345 244.871 37.931 243.565 37.1031C242.268 36.266 241.237 35.0379 240.474 33.4189C239.72 31.7906 239.342 29.7944 239.342 27.4303C239.342 25.0017 239.733 22.9825 240.515 21.3727C241.297 19.7537 242.337 18.544 243.634 17.7437C244.94 16.9342 246.37 16.5294 247.925 16.5294C249.112 16.5294 250.101 16.7318 250.892 17.1365C251.692 17.5321 252.336 18.0288 252.824 18.6268C253.32 19.2155 253.698 19.7951 253.955 20.3654H254.135V9.74048H259.999V38H254.203V34.6055H253.955C253.679 35.1943 253.288 35.7784 252.782 36.358C252.285 36.9283 251.637 37.4021 250.837 37.7792C250.046 38.1564 249.08 38.345 247.939 38.345ZM249.802 33.6672C250.749 33.6672 251.55 33.4097 252.203 32.8945C252.865 32.3702 253.371 31.6388 253.721 30.7005C254.079 29.7622 254.259 28.663 254.259 27.4027C254.259 26.1424 254.084 25.0477 253.734 24.1186C253.385 23.1895 252.879 22.472 252.217 21.966C251.554 21.4601 250.749 21.2071 249.802 21.2071C248.836 21.2071 248.022 21.4693 247.359 21.9936C246.697 22.518 246.196 23.2447 245.855 24.1738C245.515 25.1029 245.345 26.1792 245.345 27.4027C245.345 28.6354 245.515 29.7254 245.855 30.6729C246.205 31.6113 246.706 32.3472 247.359 32.8807C248.022 33.4051 248.836 33.6672 249.802 33.6672ZM262.889 38V16.8054H268.767V38H262.889ZM265.842 14.0732C264.968 14.0732 264.218 13.7835 263.593 13.2039C262.976 12.6152 262.668 11.9115 262.668 11.0927C262.668 10.2832 262.976 9.5887 263.593 9.00916C264.218 8.42042 264.968 8.12605 265.842 8.12605C266.716 8.12605 267.461 8.42042 268.077 9.00916C268.703 9.5887 269.016 10.2832 269.016 11.0927C269.016 11.9115 268.703 12.6152 268.077 13.2039C267.461 13.7835 266.716 14.0732 265.842 14.0732ZM277.411 25.7469V38H271.533V16.8054H277.135V20.5448H277.384C277.853 19.3121 278.639 18.337 279.743 17.6195C280.847 16.8928 282.186 16.5294 283.759 16.5294C285.231 16.5294 286.514 16.8514 287.608 17.4953C288.703 18.1392 289.554 19.0591 290.161 20.255C290.768 21.4417 291.072 22.8583 291.072 24.505V38H285.194V25.5537C285.203 24.2566 284.872 23.2447 284.2 22.518C283.529 21.7821 282.604 21.4141 281.427 21.4141C280.636 21.4141 279.936 21.5843 279.329 21.9246C278.731 22.265 278.262 22.7618 277.922 23.4149C277.591 24.0588 277.421 24.8361 277.411 25.7469ZM303.311 46.3895C301.406 46.3895 299.774 46.1274 298.412 45.603C297.06 45.0879 295.984 44.3841 295.183 43.4918C294.383 42.5995 293.863 41.5968 293.624 40.4837L299.061 39.7524C299.226 40.1756 299.488 40.5711 299.847 40.9391C300.206 41.3071 300.68 41.6014 301.268 41.8222C301.866 42.0522 302.593 42.1672 303.449 42.1672C304.727 42.1672 305.781 41.8544 306.608 41.2289C307.446 40.6125 307.864 39.5776 307.864 38.1242V34.2468H307.616C307.358 34.8355 306.972 35.3921 306.457 35.9164C305.942 36.4408 305.279 36.8685 304.47 37.1997C303.66 37.5308 302.694 37.6964 301.572 37.6964C299.981 37.6964 298.532 37.3285 297.225 36.5925C295.928 35.8474 294.893 34.7113 294.121 33.1843C293.357 31.648 292.975 29.707 292.975 27.3613C292.975 24.9603 293.366 22.9549 294.148 21.3451C294.93 19.7353 295.97 18.5302 297.267 17.7299C298.573 16.9296 300.004 16.5294 301.558 16.5294C302.745 16.5294 303.738 16.7318 304.539 17.1365C305.339 17.5321 305.983 18.0288 306.47 18.6268C306.967 19.2155 307.349 19.7951 307.616 20.3654H307.837V16.8054H313.673V38.207C313.673 40.01 313.232 41.5186 312.349 42.7329C311.466 43.9472 310.242 44.8579 308.678 45.465C307.124 46.0814 305.334 46.3895 303.311 46.3895ZM303.435 33.2809C304.382 33.2809 305.183 33.0463 305.836 32.5772C306.498 32.0988 307.004 31.4181 307.354 30.535C307.712 29.6427 307.892 28.5756 307.892 27.3337C307.892 26.0918 307.717 25.0155 307.367 24.1048C307.018 23.1849 306.512 22.472 305.85 21.966C305.187 21.4601 304.382 21.2071 303.435 21.2071C302.469 21.2071 301.655 21.4693 300.992 21.9936C300.33 22.5088 299.829 23.2263 299.488 24.1462C299.148 25.0661 298.978 26.1286 298.978 27.3337C298.978 28.5572 299.148 29.6151 299.488 30.5074C299.838 31.3905 300.339 32.0758 300.992 32.5634C301.655 33.0417 302.469 33.2809 303.435 33.2809Z" fill="#F7F7F7"/>
<path d="M20.6349 1.11108H47.6191V16.9841H20.6349V1.11108Z" fill="#F8B501"/>
<path d="M0 29.6825H47.6191V45.5555H0V29.6825Z" fill="#F8B501"/>
<path d="M0 1.11109H15.873V24.9206H0V1.11109Z" fill="#F8B501"/>
</svg>
